# xmcd CD database file
#
# Track frame offsets:
#	150
#	16420
#	28332
#	50879
#	73754
#	96000
#	114020
#	135108
#	154286
#	174732
#
# Disc length: 2582 seconds
#
# Revision: 2
# Processed by: cddbd v1.5.1PL2 Copyright (c) Steve Scherf et al.
# Submitted via: CDex 1.51
#
DISCID=820a140a
DTITLE=Assembly Sluggers - Slug songs
DYEAR=2006
DGENRE=Country
TTITLE0=Please Stay - Warren Zevon
TTITLE1=Home to You - The Peasall Sisters
TTITLE2=Devils and Dust - Bruce Springsteen
TTITLE3=Canon: Johann Pachelbel -English String Orchestra
TTITLE4=Bridge Over Troubled Waters - Simon and Garfunkel
TTITLE5=Russians - Sting
TTITLE6=Ready To Fly - Richard Marx
TTITLE7=My Love Will Follow You - Richard Shindell
TTITLE8=Angel - Sarah McLachlan
TTITLE9=Body Prayer - Interplay
EXTD=YEAR: 2006
EXTT0=
EXTT1=
EXTT2=
EXTT3=
EXTT4=
EXTT5=
EXTT6=
EXTT7=
EXTT8=
EXTT9=
PLAYORDER=
